<svg id="Layer_1" data-name="Layer 1" xmlns="http://www.w3.org/2000/svg" viewBox="0 0 196.29 23.01"><defs><style>.cls-1{fill:#010101;}</style></defs><title>t1b</title><path class="cls-1" d="M38.08,25.73H35.36V6H29.81V3.59H43.67V6H38.08V25.73Z" transform="translate(-29.81 -3.16)"/><path class="cls-1" d="M46.64,3.59H53.8c3.47,0,5.67,2,5.67,5.55,0,2.42-.84,5-3.41,5.58v0.06a3.64,3.64,0,0,1,3.13,3.69l0.19,3.78c0.12,2.45.53,3.07,1.18,3.47H57.27c-0.47-.46-0.68-2.11-0.74-3.19l-0.19-3.44c-0.22-3-1.89-3.22-3.29-3.22H49.37v9.86H46.64V3.59Zm2.73,10h2.7c1.61,0,4.56,0,4.56-4.28,0-2.17-1.46-3.53-4-3.53H49.37v7.81Z" transform="translate(-29.81 -3.16)"/><path class="cls-1" d="M68,3.59h3.66l6,22.14H74.76l-1.58-6.08H66.11l-1.64,6.08H61.61ZM66.67,17.42h6L69.8,6.72H69.74Z" transform="translate(-29.81 -3.16)"/><path class="cls-1" d="M80.09,3.59h3.53l7.32,18.48H91V3.59h2.73V25.73H90L82.88,7.81H82.82V25.73H80.09V3.59Z" transform="translate(-29.81 -3.16)"/><path class="cls-1" d="M107.65,9.33c0-2.33-.84-3.94-3.44-3.94-2.29,0-3.66,1.24-3.66,3.6,0,6.23,10.45,2.51,10.45,10.6,0,5.12-3.75,6.57-6.88,6.57-5.18,0-6.7-2.67-6.7-7.38h2.73c0,2.48.16,5.15,4.16,5.15A3.73,3.73,0,0,0,108.15,20c0-6.26-10.45-2.64-10.45-10.76,0-2,.87-6.11,6.48-6.11,4.22,0,6.14,2.11,6.2,6.17h-2.73Z" transform="translate(-29.81 -3.16)"/><path class="cls-1" d="M114.68,3.59h11.44V6h-8.71V13h8.22v2.42h-8.22V25.73h-2.73V3.59Z" transform="translate(-29.81 -3.16)"/><path class="cls-1" d="M143.33,14.66c0,5.58-1,11.5-7.13,11.5s-7.13-5.92-7.13-11.5,1-11.5,7.13-11.5S143.33,9.08,143.33,14.66Zm-11.41,0c0,5.12.5,9.27,4.28,9.27s4.28-4.15,4.28-9.27S140,5.39,136.2,5.39,131.92,9.54,131.92,14.66Z" transform="translate(-29.81 -3.16)"/><path class="cls-1" d="M147.54,3.59h7.16c3.47,0,5.67,2,5.67,5.55,0,2.42-.84,5-3.41,5.58v0.06a3.64,3.64,0,0,1,3.13,3.69l0.19,3.78c0.12,2.45.53,3.07,1.18,3.47h-3.29c-0.46-.46-0.68-2.11-0.74-3.19l-0.19-3.44c-0.22-3-1.89-3.22-3.29-3.22h-3.69v9.86h-2.73V3.59Zm2.73,10H153c1.61,0,4.56,0,4.56-4.28,0-2.17-1.46-3.53-4-3.53h-3.25v7.81Z" transform="translate(-29.81 -3.16)"/><path class="cls-1" d="M164.63,3.59h4.59l4.43,17.55h0.06l4.43-17.55h4.59V25.73H180V6.38h-0.06L175,25.73h-2.73l-4.9-19.35h-0.06V25.73h-2.73V3.59Z" transform="translate(-29.81 -3.16)"/><path class="cls-1" d="M187.32,3.59H190V25.73h-2.73V3.59Z" transform="translate(-29.81 -3.16)"/><path class="cls-1" d="M194.57,3.59h3.53l7.32,18.48h0.06V3.59h2.73V25.73h-3.75l-7.1-17.92H197.3V25.73h-2.73V3.59Z" transform="translate(-29.81 -3.16)"/><path class="cls-1" d="M223.25,9.73c-0.12-2.33-1-4.34-3.69-4.34-3.78,0-4.28,4.15-4.28,9.27s0.5,9.27,4.28,9.27,4.06-4.53,4.06-7.47h-4.37V14.23h6.85v11.5h-2v-3H224a4.91,4.91,0,0,1-4.78,3.44c-5.77,0-6.79-5.55-6.79-11.5,0-5.58,1-11.5,7.13-11.5,6.36,0,6.51,5.43,6.54,6.57h-2.85Z" transform="translate(-29.81 -3.16)"/></svg>