<svg id="Layer_1" data-name="Layer 1" xmlns="http://www.w3.org/2000/svg" viewBox="0 0 254.7 93.91"><defs><style>.cls-1{fill:#010101;}</style></defs><title>text</title><path class="cls-1" d="M19.94,14.66c0,5.58-1,11.5-7.13,11.5s-7.13-5.92-7.13-11.5,1-11.5,7.13-11.5S19.94,9.08,19.94,14.66Zm-11.41,0c0,5.12.5,9.27,4.28,9.27s4.28-4.15,4.28-9.27-0.5-9.27-4.28-9.27S8.53,9.54,8.53,14.66Z" transform="translate(-5.67 -3.16)"/><path class="cls-1" d="M24.15,3.59h3.53L35,22.07h0.06V3.59h2.73V25.73H34L26.94,7.81H26.88V25.73H24.15V3.59Z" transform="translate(-5.67 -3.16)"/><path class="cls-1" d="M42.32,3.59H53.76V6H45V13h8.22v2.42H45v7.94h9.08v2.42H42.32V3.59Z" transform="translate(-5.67 -3.16)"/><path class="cls-1" d="M71.55,25.73H68.82V6H63.27V3.59H77.13V6H71.55V25.73Z" transform="translate(-5.67 -3.16)"/><path class="cls-1" d="M80.1,3.59H91.55V6H82.83V13H91v2.42H82.83v7.94h9.08v2.42H80.1V3.59Z" transform="translate(-5.67 -3.16)"/><path class="cls-1" d="M108.94,18.13c-0.25,4.19-1.89,8-6.73,8-6.29,0-7.13-5.92-7.13-11.5s1-11.5,7.13-11.5c4.53,0,6.42,2.54,6.54,6.88H105.9c-0.06-2.51-.87-4.65-3.69-4.65-3.78,0-4.28,4.15-4.28,9.27s0.5,9.27,4.28,9.27c3.32,0,3.78-3.1,3.88-5.8h2.85Z" transform="translate(-5.67 -3.16)"/><path class="cls-1" d="M125.46,25.73h-2.73V15.06h-7.6V25.73h-2.73V3.59h2.73v9.05h7.6V3.59h2.73V25.73Z" transform="translate(-5.67 -3.16)"/><path class="cls-1" d="M130,3.59h3.54l7.32,18.48h0.06V3.59h2.73V25.73h-3.75l-7.1-17.92h-0.06V25.73H130V3.59Z" transform="translate(-5.67 -3.16)"/><path class="cls-1" d="M162.1,14.66c0,5.58-1,11.5-7.13,11.5s-7.13-5.92-7.13-11.5,1-11.5,7.13-11.5S162.1,9.08,162.1,14.66Zm-11.41,0c0,5.12.5,9.27,4.28,9.27s4.28-4.15,4.28-9.27-0.5-9.27-4.28-9.27S150.69,9.54,150.69,14.66Z" transform="translate(-5.67 -3.16)"/><path class="cls-1" d="M166.31,3.59H169V23.31h9v2.42H166.31V3.59Z" transform="translate(-5.67 -3.16)"/><path class="cls-1" d="M195,14.66c0,5.58-1,11.5-7.13,11.5s-7.13-5.92-7.13-11.5,1-11.5,7.13-11.5S195,9.08,195,14.66Zm-11.41,0c0,5.12.5,9.27,4.28,9.27s4.28-4.15,4.28-9.27-0.5-9.27-4.28-9.27S183.55,9.54,183.55,14.66Z" transform="translate(-5.67 -3.16)"/><path class="cls-1" d="M209.69,9.73c-0.12-2.33-1-4.34-3.69-4.34-3.78,0-4.28,4.15-4.28,9.27s0.5,9.27,4.28,9.27,4.06-4.53,4.06-7.47h-4.37V14.23h6.85v11.5h-2v-3h-0.06a4.91,4.91,0,0,1-4.78,3.44c-5.77,0-6.79-5.55-6.79-11.5,0-5.58,1-11.5,7.13-11.5,6.36,0,6.51,5.43,6.54,6.57h-2.85Z" transform="translate(-5.67 -3.16)"/><path class="cls-1" d="M214.89,3.59h3l4.22,10.36,4.37-10.36h2.85L223.48,17v8.68h-2.73V17Z" transform="translate(-5.67 -3.16)"/><path class="cls-1" d="M240.37,3.59h2.73V25.73h-2.73V3.59Z" transform="translate(-5.67 -3.16)"/><path class="cls-1" d="M257,9.33c0-2.33-.84-3.94-3.44-3.94-2.29,0-3.66,1.24-3.66,3.6,0,6.23,10.45,2.51,10.45,10.6,0,5.12-3.75,6.57-6.88,6.57-5.18,0-6.7-2.67-6.7-7.38h2.73c0,2.48.16,5.15,4.16,5.15A3.73,3.73,0,0,0,257.52,20c0-6.26-10.45-2.64-10.45-10.76,0-2,.87-6.11,6.48-6.11,4.22,0,6.14,2.11,6.2,6.17H257Z" transform="translate(-5.67 -3.16)"/><path class="cls-1" d="M42.27,60.73H39.54V41H34V38.59H47.85V41H42.27V60.73Z" transform="translate(-5.67 -3.16)"/><path class="cls-1" d="M50.82,38.59H58c3.47,0,5.67,2,5.67,5.55,0,2.42-.84,5-3.41,5.58v0.06a3.64,3.64,0,0,1,3.13,3.69l0.19,3.78c0.12,2.45.53,3.07,1.18,3.47H61.46c-0.47-.46-0.68-2.11-0.74-3.19L60.53,54.1c-0.22-3-1.89-3.22-3.29-3.22H53.55v9.86H50.82V38.59Zm2.73,10h2.7c1.61,0,4.56,0,4.56-4.28,0-2.17-1.46-3.54-4-3.54H53.55v7.81Z" transform="translate(-5.67 -3.16)"/><path class="cls-1" d="M72.18,38.59h3.66l6,22.14H78.94l-1.58-6.08H70.29l-1.64,6.08H65.8ZM70.85,52.42h6L74,41.72H73.92Z" transform="translate(-5.67 -3.16)"/><path class="cls-1" d="M84.27,38.59h3.53l7.32,18.48h0.06V38.59h2.73V60.73H94.16l-7.1-17.92H87V60.73H84.27V38.59Z" transform="translate(-5.67 -3.16)"/><path class="cls-1" d="M111.83,44.33c0-2.33-.84-3.94-3.44-3.94-2.29,0-3.66,1.24-3.66,3.6,0,6.23,10.45,2.51,10.45,10.6,0,5.12-3.75,6.57-6.88,6.57-5.18,0-6.7-2.67-6.7-7.38h2.73c0,2.48.16,5.15,4.16,5.15A3.73,3.73,0,0,0,112.33,55c0-6.26-10.45-2.64-10.45-10.76,0-2,.87-6.11,6.48-6.11,4.22,0,6.14,2.11,6.2,6.17h-2.73Z" transform="translate(-5.67 -3.16)"/><path class="cls-1" d="M118.87,38.59h11.44V41H121.6V48h8.22v2.42H121.6V60.73h-2.73V38.59Z" transform="translate(-5.67 -3.16)"/><path class="cls-1" d="M147.52,49.66c0,5.58-1,11.5-7.13,11.5s-7.13-5.92-7.13-11.5,1-11.5,7.13-11.5S147.52,44.08,147.52,49.66Zm-11.41,0c0,5.12.5,9.27,4.28,9.27s4.28-4.15,4.28-9.27-0.5-9.27-4.28-9.27S136.11,44.54,136.11,49.66Z" transform="translate(-5.67 -3.16)"/><path class="cls-1" d="M151.73,38.59h7.16c3.47,0,5.67,2,5.67,5.55,0,2.42-.84,5-3.41,5.58v0.06a3.64,3.64,0,0,1,3.13,3.69l0.19,3.78c0.12,2.45.53,3.07,1.18,3.47h-3.29c-0.46-.46-0.68-2.11-0.74-3.19l-0.19-3.44c-0.22-3-1.89-3.22-3.29-3.22h-3.69v9.86h-2.73V38.59Zm2.73,10h2.7c1.61,0,4.56,0,4.56-4.28,0-2.17-1.46-3.54-4-3.54h-3.25v7.81Z" transform="translate(-5.67 -3.16)"/><path class="cls-1" d="M168.81,38.59h4.59l4.43,17.55h0.06l4.43-17.55h4.59V60.73h-2.73V41.38h-0.06l-4.9,19.35H176.5l-4.9-19.35h-0.06V60.73h-2.73V38.59Z" transform="translate(-5.67 -3.16)"/><path class="cls-1" d="M191.5,38.59h2.73V60.73H191.5V38.59Z" transform="translate(-5.67 -3.16)"/><path class="cls-1" d="M198.76,38.59h3.53l7.32,18.48h0.06V38.59h2.73V60.73h-3.75l-7.1-17.92h-0.06V60.73h-2.73V38.59Z" transform="translate(-5.67 -3.16)"/><path class="cls-1" d="M227.43,44.73c-0.12-2.33-1-4.34-3.69-4.34-3.78,0-4.28,4.15-4.28,9.27s0.5,9.27,4.28,9.27,4.06-4.53,4.06-7.47h-4.37V49.23h6.85v11.5h-2v-3h-0.06a4.91,4.91,0,0,1-4.78,3.44c-5.77,0-6.79-5.55-6.79-11.5,0-5.58,1-11.5,7.13-11.5,6.36,0,6.51,5.43,6.54,6.57h-2.85Z" transform="translate(-5.67 -3.16)"/><path class="cls-1" d="M42.69,73.59h2.73V93.31h9v2.42H42.69V73.59Z" transform="translate(-5.67 -3.16)"/><path class="cls-1" d="M57.38,73.59h2.73V95.73H57.38V73.59Z" transform="translate(-5.67 -3.16)"/><path class="cls-1" d="M75.27,95a6.26,6.26,0,0,1-3.81,1.12c-6.11,0-7.13-5.92-7.13-11.5s1-11.5,7.13-11.5,7.13,5.92,7.13,11.5c0,3.19-.34,6.51-1.8,8.74l2.23,2L77.5,97.06Zm-3.94-3.57,1.52-1.67,2,1.86a20.3,20.3,0,0,0,.84-7c0-5.12-.5-9.27-4.28-9.27s-4.28,4.15-4.28,9.27,0.5,9.27,4.28,9.27a3.67,3.67,0,0,0,2-.53Z" transform="translate(-5.67 -3.16)"/><path class="cls-1" d="M82.55,73.59h2.73V89.16c0,3.26,1.05,4.77,3.75,4.77,2.91,0,3.78-1.67,3.78-4.77V73.59h2.73V89.16c0,4.25-2.17,7-6.51,7s-6.48-2.45-6.48-7V73.59Z" transform="translate(-5.67 -3.16)"/><path class="cls-1" d="M99.82,73.59h2.73V95.73H99.82V73.59Z" transform="translate(-5.67 -3.16)"/><path class="cls-1" d="M107.35,73.59h5.92c6.88,0,7.75,5,7.75,11.07,0,5.58-1.4,11.07-7.47,11.07h-6.2V73.59Zm2.73,19.91h2.85c4.71,0,5.24-4.84,5.24-8.81,0-4.28-.28-8.87-5.24-8.87h-2.85V93.5Z" transform="translate(-5.67 -3.16)"/><path class="cls-1" d="M133.61,73.59h6.79c2.88,0,5.67,1.37,5.67,5.67a4.75,4.75,0,0,1-3.22,4.62v0.06c2.73,0.65,3.94,2.73,3.94,5.46,0,4.5-2.54,6.33-7.16,6.33h-6V73.59Zm2.73,9.55h3.13c1.15,0,3.75-.28,3.75-3.69,0-2.29-1.15-3.63-3.81-3.63h-3.07v7.32Zm0,10.36h3.72c2.88,0,3.88-2,3.88-4.09,0-3-2-4.22-4.34-4.22h-3.26V93.5Z" transform="translate(-5.67 -3.16)"/><path class="cls-1" d="M150.63,73.59h2.73V95.73h-2.73V73.59Z" transform="translate(-5.67 -3.16)"/><path class="cls-1" d="M171.83,84.66c0,5.58-1,11.5-7.13,11.5s-7.13-5.92-7.13-11.5,1-11.5,7.13-11.5S171.83,79.08,171.83,84.66Zm-11.41,0c0,5.12.5,9.27,4.28,9.27S169,89.78,169,84.66s-0.5-9.27-4.28-9.27S160.42,79.54,160.42,84.66Z" transform="translate(-5.67 -3.16)"/><path class="cls-1" d="M176,73.59h5.64c1.92,0,6.85,0,6.85,6.36,0,4.12-2.64,6.42-6.39,6.42h-3.38v9.36H176V73.59Zm2.73,10.54H182c2,0,3.66-1.37,3.66-4.31,0-2.42-1.15-4-3.84-4h-3.07v8.31Z" transform="translate(-5.67 -3.16)"/><path class="cls-1" d="M201.28,79.33c0-2.33-.84-3.94-3.44-3.94-2.29,0-3.66,1.24-3.66,3.6,0,6.23,10.45,2.51,10.45,10.6,0,5.12-3.75,6.57-6.88,6.57-5.18,0-6.7-2.67-6.7-7.38h2.73c0,2.48.16,5.15,4.16,5.15A3.73,3.73,0,0,0,201.78,90c0-6.26-10.45-2.64-10.45-10.76,0-2,.87-6.11,6.48-6.11,4.22,0,6.14,2.11,6.2,6.17h-2.73Z" transform="translate(-5.67 -3.16)"/><path class="cls-1" d="M206.46,73.59h3l4.22,10.36,4.37-10.36h2.85L215,87v8.68h-2.73V87Z" transform="translate(-5.67 -3.16)"/><path class="cls-1" d="M220.63,92.44h2.85v3.29h-2.85V92.44Z" transform="translate(-5.67 -3.16)"/></svg>