<svg id="Layer_1" data-name="Layer 1" xmlns="http://www.w3.org/2000/svg" viewBox="0 0 254.7 23.01"><defs><style>.cls-1{fill:#010101;}</style></defs><title>t1a</title><path class="cls-1" d="M15.75,14.66c0,5.58-1,11.5-7.13,11.5s-7.13-5.92-7.13-11.5,1-11.5,7.13-11.5S15.75,9.08,15.75,14.66Zm-11.41,0c0,5.12.5,9.27,4.28,9.27s4.28-4.15,4.28-9.27S12.4,5.39,8.62,5.39,4.34,9.54,4.34,14.66Z" transform="translate(-1.49 -3.16)"/><path class="cls-1" d="M20,3.59H23.5l7.32,18.48h0.06V3.59h2.73V25.73H29.86L22.75,7.81H22.69V25.73H20V3.59Z" transform="translate(-1.49 -3.16)"/><path class="cls-1" d="M38.13,3.59H49.57V6H40.86V13h8.22v2.42H40.86v7.94h9.08v2.42H38.13V3.59Z" transform="translate(-1.49 -3.16)"/><path class="cls-1" d="M67.36,25.73H64.64V6H59.09V3.59H72.95V6H67.36V25.73Z" transform="translate(-1.49 -3.16)"/><path class="cls-1" d="M75.92,3.59H87.36V6H78.65V13h8.22v2.42H78.65v7.94h9.08v2.42H75.92V3.59Z" transform="translate(-1.49 -3.16)"/><path class="cls-1" d="M104.75,18.13c-0.25,4.19-1.89,8-6.73,8-6.29,0-7.13-5.92-7.13-11.5s1-11.5,7.13-11.5c4.53,0,6.42,2.54,6.54,6.88h-2.85c-0.06-2.51-.87-4.65-3.69-4.65-3.78,0-4.28,4.15-4.28,9.27s0.5,9.27,4.28,9.27c3.32,0,3.78-3.1,3.88-5.8h2.85Z" transform="translate(-1.49 -3.16)"/><path class="cls-1" d="M121.27,25.73h-2.73V15.06h-7.6V25.73h-2.73V3.59h2.73v9.05h7.6V3.59h2.73V25.73Z" transform="translate(-1.49 -3.16)"/><path class="cls-1" d="M125.8,3.59h3.54l7.32,18.48h0.06V3.59h2.73V25.73h-3.75l-7.1-17.92h-0.06V25.73H125.8V3.59Z" transform="translate(-1.49 -3.16)"/><path class="cls-1" d="M157.92,14.66c0,5.58-1,11.5-7.13,11.5s-7.13-5.92-7.13-11.5,1-11.5,7.13-11.5S157.92,9.08,157.92,14.66Zm-11.41,0c0,5.12.5,9.27,4.28,9.27s4.28-4.15,4.28-9.27-0.5-9.27-4.28-9.27S146.51,9.54,146.51,14.66Z" transform="translate(-1.49 -3.16)"/><path class="cls-1" d="M162.13,3.59h2.73V23.31h9v2.42H162.13V3.59Z" transform="translate(-1.49 -3.16)"/><path class="cls-1" d="M190.78,14.66c0,5.58-1,11.5-7.13,11.5s-7.13-5.92-7.13-11.5,1-11.5,7.13-11.5S190.78,9.08,190.78,14.66Zm-11.41,0c0,5.12.5,9.27,4.28,9.27s4.28-4.15,4.28-9.27-0.5-9.27-4.28-9.27S179.37,9.54,179.37,14.66Z" transform="translate(-1.49 -3.16)"/><path class="cls-1" d="M205.5,9.73c-0.12-2.33-1-4.34-3.69-4.34-3.78,0-4.28,4.15-4.28,9.27s0.5,9.27,4.28,9.27,4.06-4.53,4.06-7.47H201.5V14.23h6.85v11.5h-2v-3h-0.06a4.91,4.91,0,0,1-4.78,3.44c-5.77,0-6.79-5.55-6.79-11.5,0-5.58,1-11.5,7.13-11.5,6.36,0,6.51,5.43,6.54,6.57H205.5Z" transform="translate(-1.49 -3.16)"/><path class="cls-1" d="M210.71,3.59h3l4.22,10.36L222.3,3.59h2.85L219.29,17v8.68h-2.73V17Z" transform="translate(-1.49 -3.16)"/><path class="cls-1" d="M236.19,3.59h2.73V25.73h-2.73V3.59Z" transform="translate(-1.49 -3.16)"/><path class="cls-1" d="M252.84,9.33c0-2.33-.84-3.94-3.44-3.94-2.29,0-3.66,1.24-3.66,3.6,0,6.23,10.45,2.51,10.45,10.6,0,5.12-3.75,6.57-6.88,6.57-5.18,0-6.7-2.67-6.7-7.38h2.73c0,2.48.16,5.15,4.16,5.15A3.73,3.73,0,0,0,253.33,20c0-6.26-10.45-2.64-10.45-10.76,0-2,.87-6.11,6.48-6.11,4.22,0,6.14,2.11,6.2,6.17h-2.73Z" transform="translate(-1.49 -3.16)"/></svg>