<svg id="Layer_1" data-name="Layer 1" xmlns="http://www.w3.org/2000/svg" viewBox="0 0 184.42 23.91"><title>t1c</title><path d="M1.8,3.59H4.53V23.31h9v2.42H1.8V3.59Z" transform="translate(-1.8 -3.16)"/><path d="M16.77,3.59H19.5V25.73H16.77V3.59Z" transform="translate(-1.8 -3.16)"/><path d="M34.94,25a6.26,6.26,0,0,1-3.81,1.12C25,26.16,24,20.24,24,14.66s1-11.5,7.13-11.5,7.13,5.92,7.13,11.5c0,3.19-.34,6.51-1.8,8.74l2.23,2-1.52,1.61ZM31,21.48l1.52-1.67,2,1.86a20.32,20.32,0,0,0,.84-7c0-5.12-.5-9.27-4.28-9.27s-4.28,4.15-4.28,9.27,0.5,9.27,4.28,9.27a3.67,3.67,0,0,0,2-.53Z" transform="translate(-1.8 -3.16)"/><path d="M42.5,3.59h2.73V19.16c0,3.26,1.05,4.77,3.75,4.77,2.91,0,3.78-1.67,3.78-4.77V3.59h2.73V19.16c0,4.25-2.17,7-6.51,7s-6.48-2.45-6.48-7V3.59Z" transform="translate(-1.8 -3.16)"/><path d="M60,3.59h2.73V25.73H60V3.59Z" transform="translate(-1.8 -3.16)"/><path d="M67.86,3.59h5.92c6.88,0,7.75,5,7.75,11.07,0,5.58-1.4,11.07-7.47,11.07h-6.2V3.59ZM70.59,23.5h2.85c4.71,0,5.24-4.84,5.24-8.81,0-4.28-.28-8.87-5.24-8.87H70.59V23.5Z" transform="translate(-1.8 -3.16)"/><path d="M94.67,3.59h6.79c2.88,0,5.67,1.36,5.67,5.67a4.75,4.75,0,0,1-3.22,4.62v0.06c2.73,0.65,3.94,2.73,3.94,5.46,0,4.5-2.54,6.33-7.16,6.33h-6V3.59Zm2.73,9.55h3.13c1.15,0,3.75-.28,3.75-3.69,0-2.29-1.15-3.63-3.81-3.63H97.4v7.32Zm0,10.36h3.72c2.88,0,3.88-2,3.88-4.09,0-3-2-4.22-4.34-4.22H97.4V23.5Z" transform="translate(-1.8 -3.16)"/><path d="M112,3.59h2.73V25.73H112V3.59Z" transform="translate(-1.8 -3.16)"/><path d="M133.46,14.66c0,5.58-1,11.5-7.13,11.5s-7.13-5.92-7.13-11.5,1-11.5,7.13-11.5S133.46,9.08,133.46,14.66Zm-11.41,0c0,5.12.5,9.27,4.28,9.27s4.28-4.15,4.28-9.27-0.5-9.27-4.28-9.27S122,9.54,122,14.66Z" transform="translate(-1.8 -3.16)"/><path d="M137.95,3.59h5.64c1.92,0,6.85,0,6.85,6.36,0,4.12-2.64,6.42-6.39,6.42h-3.38v9.36h-2.73V3.59Zm2.73,10.54h3.26c2,0,3.66-1.36,3.66-4.31,0-2.42-1.15-4-3.84-4h-3.07v8.31Z" transform="translate(-1.8 -3.16)"/><path d="M163.46,9.33c0-2.33-.84-3.94-3.44-3.94-2.29,0-3.66,1.24-3.66,3.6,0,6.23,10.45,2.51,10.45,10.6,0,5.12-3.75,6.57-6.88,6.57-5.18,0-6.7-2.67-6.7-7.38H156c0,2.48.16,5.15,4.16,5.15A3.73,3.73,0,0,0,164,20c0-6.26-10.45-2.64-10.45-10.76,0-2,.87-6.11,6.48-6.11,4.22,0,6.14,2.11,6.2,6.17h-2.73Z" transform="translate(-1.8 -3.16)"/><path d="M168.92,3.59h3l4.22,10.36,4.37-10.36h2.85L177.51,17v8.68h-2.73V17Z" transform="translate(-1.8 -3.16)"/><path d="M183.36,22.44h2.85v3.29h-2.85V22.44Z" transform="translate(-1.8 -3.16)"/></svg>